<svg width="1920" height="1080" viewBox="0 0 1920 1080" fill="none" xmlns="http://www.w3.org/2000/svg">
<g clip-path="url(#clip0_1_3)">
<rect width="1920" height="1080" fill="#58C3F1"/>
<rect y="503" width="1920" height="577" fill="#2AC05D"/>
<circle cx="1862" cy="52" r="261" fill="#FDB813"/>
<ellipse cx="253.306" cy="158.985" rx="133.306" ry="82.3445" fill="#D9D9D9"/>
<ellipse cx="355.229" cy="131.344" rx="133.306" ry="82.3445" fill="#D9D9D9"/>
<ellipse cx="404.751" cy="190.656" rx="133.306" ry="82.3445" fill="#D9D9D9"/>
<ellipse cx="508.401" cy="145.74" rx="133.306" ry="82.3445" fill="#D9D9D9"/>
<ellipse cx="859.018" cy="312.646" rx="105.018" ry="64.8709" fill="#D9D9D9"/>
<ellipse cx="939.313" cy="290.871" rx="105.018" ry="64.8709" fill="#D9D9D9"/>
<ellipse cx="978.326" cy="337.596" rx="105.018" ry="64.8709" fill="#D9D9D9"/>
<ellipse cx="1059.98" cy="302.212" rx="105.018" ry="64.8709" fill="#D9D9D9"/>
<ellipse cx="1333.78" cy="146.252" rx="128.781" ry="79.5497" fill="#D9D9D9"/>
<ellipse cx="1432.25" cy="119.55" rx="128.781" ry="79.5497" fill="#D9D9D9"/>
<ellipse cx="1480.09" cy="176.848" rx="128.781" ry="79.5497" fill="#D9D9D9"/>
<ellipse cx="1580.22" cy="133.457" rx="128.781" ry="79.5497" fill="#D9D9D9"/>
</g>
<defs>
<clipPath id="clip0_1_3">
<rect width="1920" height="1080" fill="white"/>
</clipPath>
</defs>
</svg>
